<?xml version="1.0" encoding="UTF-8" standalone="no"?>
<!DOCTYPE svg PUBLIC "-//W3C//DTD SVG 1.1//EN" "http://www.w3.org/Graphics/SVG/1.1/DTD/svg11.dtd">
<svg width="30px" height="50.8px" viewBox="0 0 259 420" version="1.1" xmlns="http://www.w3.org/2000/svg" xmlns:xlink="http://www.w3.org/1999/xlink" xml:space="preserve" xmlns:serif="http://www.serif.com/" style="fill-rule:evenodd;clip-rule:evenodd;stroke-linejoin:round;stroke-miterlimit:2;">
    <g transform="matrix(1,0,0,1,-0.984359,-10.2806)">
        <g transform="matrix(1,0,0,1,2.84217e-14,9.95152)">
            <path d="M27.35,207.47C10.812,185.784 0.984,158.703 0.984,129.345C0.984,58.139 58.794,0.329 130,0.329C201.206,0.329 259.016,58.139 259.016,129.345C259.016,159.757 248.47,187.725 230.842,209.786L184.416,287.182C184.416,287.182 136.636,365.973 130.153,419.581L130.176,419.768L130.132,419.751L130.153,419.581C123.665,365.973 77.218,287.089 77.218,287.089L27.35,207.47Z" style="fill:rgb(37,37,37);"/>
        </g>
        <g transform="matrix(1.05378,0,0,1.05378,-6.67126,-102.503)">
            <path d="M55.101,310.281L55.101,223.592L38.518,239.901L29.309,230.442L130.414,129.825L130.414,129.719L130.467,129.772L130.52,129.719L130.52,129.825L231.625,230.442L222.416,239.901L205.833,223.592L205.833,310.281L55.101,310.281ZM192.417,297.165L192.417,223.592L130.52,284.672L130.52,284.777L130.467,284.724L130.414,284.777L130.414,284.672L68.516,223.592L68.516,297.165L192.417,297.165ZM130.467,265.635L182.467,214.168L78.467,214.168L130.467,265.635ZM130.467,148.536L78.467,200.668L182.467,200.668L130.467,148.536Z" style="fill:white;"/>
        </g>
    </g>
</svg>
