<?xml version="1.0" encoding="UTF-8" standalone="no"?>
<!DOCTYPE svg PUBLIC "-//W3C//DTD SVG 1.1//EN" "http://www.w3.org/Graphics/SVG/1.1/DTD/svg11.dtd">
<svg width="30px" height="50.8px" viewBox="0 0 259 420" version="1.1" xmlns="http://www.w3.org/2000/svg" xmlns:xlink="http://www.w3.org/1999/xlink" xml:space="preserve" xmlns:serif="http://www.serif.com/" style="fill-rule:evenodd;clip-rule:evenodd;stroke-linejoin:round;stroke-miterlimit:2;">
    <g transform="matrix(1,0,0,1,-0.984359,-10.2806)">
        <g transform="matrix(1,0,0,1,2.84217e-14,9.95152)">
            <path d="M27.35,207.47C10.812,185.784 0.984,158.703 0.984,129.345C0.984,58.139 58.794,0.329 130,0.329C201.206,0.329 259.016,58.139 259.016,129.345C259.016,159.757 248.47,187.725 230.842,209.786L184.416,287.182C184.416,287.182 136.636,365.973 130.153,419.581L130.176,419.768L130.132,419.751L130.153,419.581C123.665,365.973 77.218,287.089 77.218,287.089L27.35,207.47Z" style="fill:rgb(255,97,0);"/>
        </g>
        <path d="M37.081,151.248C31.305,144.539 13.03,117.98 13.724,114.99C16.168,104.458 19.082,102.052 23.077,96.742C27.072,91.432 34.6,85.248 43.483,79.142C52.366,73.037 58.351,72.292 58.351,72.292C58.351,72.292 73.662,85.67 79.82,89.541C84.033,92.189 88.138,92.934 90.311,93.141C102.145,89.401 123.429,82.872 127.97,82.805C134.338,82.71 141.387,85.921 141.387,85.921C141.387,85.921 149.5,89.895 156.689,91.197C163.878,92.499 167.596,93.291 174.551,92.344C181.505,91.398 185.456,89.753 185.456,89.753L209.082,81.125C209.181,81.059 209.282,81.052 209.282,81.052L219.114,76.334C219.114,76.334 227.33,78.904 233.032,85.679C238.734,92.453 241.544,98.265 241.544,98.265L246.262,107.557C246.262,107.557 248.297,114.194 247.861,117.878C247.432,121.504 247.344,123.46 243.69,126.421C243.69,126.421 238.033,131.32 235.318,134.109C232.995,136.497 223.361,147.002 212.264,156.77C207.616,160.862 205.259,162.702 205.359,162.942C208.586,170.687 207.269,178.494 203.398,184.489C201.246,187.821 198.352,190.736 195.108,193.072C191.16,195.914 187.896,197.263 184.974,197.604C184.714,199.192 184.153,200.878 183.21,202.711C183.173,203.266 179.92,208.089 178.317,209.665C176.302,211.897 170.014,216.06 169.378,216.019C167.489,216.912 165.763,217.411 164.143,217.601C163.863,219.096 163.315,220.677 162.435,222.387C162.398,222.942 159.145,227.765 157.542,229.341C155.528,231.573 149.239,235.736 148.603,235.696C142.283,238.68 137.791,237.27 132.942,234.573C129.913,232.888 125.141,228.696 120.167,223.9C115.529,224.637 112.89,223.383 111.11,222.995C108.905,222.515 104.139,217.275 104.139,217.275L101.759,213.929C101.759,213.929 87.607,224.979 75.935,216.163C70.527,212.078 67.152,207.184 67.265,202.075C63.715,202.925 59.181,203.034 55.63,199.841C49.974,194.756 45.952,189.777 47.179,183.848C43.921,184.359 41.273,188.875 32.816,180.428C23.63,171.254 31.977,155.816 37.081,151.248ZM122.194,184.797C121.953,185.683 121.629,186.445 121.241,187.025C119.254,189.994 116.912,196.133 113.527,199.841C125.764,211.006 137.515,220.044 139.204,220.898C141.937,222.281 144.488,221.417 146.812,219.59C148.465,217.422 149.204,215.034 147.969,212.438C147.495,211.439 144.932,208.484 141.539,204.798C133.762,197.353 125.331,188.232 122.194,184.797ZM96.528,200.897L93.817,203.17C93.817,203.17 89.091,205.939 86.012,203.17C82.932,200.402 80.933,197.704 82.917,194.228C84.9,190.752 95.357,182.67 95.357,182.67C95.357,182.67 101.195,178.848 105.168,182.67C107.367,184.786 107.282,188.675 106.324,190.107C103.759,193.94 96.528,200.897 96.528,200.897ZM122.662,180.428L128.396,175.357L130.834,172.731L131.078,172.984L131.102,172.964C131.102,172.964 143.05,184.256 152.213,194.334C155.946,197.949 158.966,200.71 159.979,201.222C162.712,202.604 165.263,201.741 167.586,199.914C169.239,197.746 169.979,195.358 168.744,192.761C168.09,191.387 163.478,186.302 158.194,180.71C153.849,176.373 149.629,171.922 146.552,168.62C143.272,165.26 140.968,162.934 140.968,162.934L147.837,156.86L151.668,152.734C151.668,152.734 153.827,154.979 156.976,158.208C160.234,161.394 164.635,165.776 168.906,170.272C174.413,175.738 179.445,180.534 180.812,181.225C184.193,182.935 187.295,181.209 190.033,178.474C192.77,175.739 191.8,171.368 190.033,169.266C181.513,159.132 138.913,117.667 138.913,117.667C138.913,117.667 109.846,123.097 99.079,123.134C88.313,123.171 87.288,122.022 83.472,120.402C79.3,118.63 76.374,116.293 74.611,113.614C73.039,111.227 71.589,109.307 73.37,103.644C69.063,101.16 62.601,97.546 58.351,95.689C51.913,92.877 30.205,109.135 32.816,114.99C33.407,116.317 51.725,135.259 51.83,138.724C55.353,138.524 70.701,126.615 79.808,135.584C84.246,139.956 84.519,147.538 82.886,151.248C87.411,149.892 93.507,149.45 98.357,154.116C102.199,157.813 102.915,163.938 102.018,167.952C106.617,166.333 113.378,165.355 118.662,170.439C121.408,173.08 122.557,176.962 122.662,180.428ZM77.87,185.886L75.158,188.159C75.158,188.159 70.344,190.928 67.265,188.159C64.186,185.391 62.274,182.693 64.258,179.217C66.242,175.741 76.699,167.659 76.699,167.659C76.699,167.659 82.536,163.837 86.509,167.659C88.708,169.775 88.623,173.665 87.665,175.096C85.1,178.929 77.87,185.886 77.87,185.886ZM48.145,159.245C44.506,163.447 45.991,166.108 48.145,168.62C51.181,172.159 53.95,169.722 56.248,168.62C57.753,167.898 67.811,159.798 70.377,155.965C71.334,154.534 71.419,150.644 69.22,148.528C67.212,146.596 64.726,146.112 62.761,147.111C59.248,148.897 50.707,156.287 48.145,159.245ZM217.268,92.344C212.201,94.333 193.058,103.503 179.76,107.813C164.252,112.84 145.413,101.034 138.494,98.709C131.576,96.383 129.543,96.799 125.148,97.582C117.606,98.927 97.376,103.983 93.662,104.89C89.949,105.797 90.48,109.995 95.552,110.984C100.624,111.972 115.599,107.813 115.599,107.813C115.599,107.813 129.628,105.028 141.387,104.89C153.147,104.752 156.689,109.385 156.689,109.385L193.359,148.875C195.356,147.65 231.812,116.402 231.812,116.402C226.802,107.114 222.536,97.961 217.268,92.344Z" style="fill:white;"/>
    </g>
</svg>
